<svg width="80" height="80" viewBox="0 0 80 80" fill="none" xmlns="http://www.w3.org/2000/svg">
  <rect width="80" height="80" rx="40" fill="#EBF5FF"/>
  <path d="M40 25C31.716 25 25 31.716 25 40C25 48.284 31.716 55 40 55C48.284 55 55 48.284 55 40C55 31.716 48.284 25 40 25ZM40 50C34.477 50 30 45.523 30 40C30 34.477 34.477 30 40 30C45.523 30 50 34.477 50 40C50 45.523 45.523 50 40 50Z" fill="#3498db"/>
  <path d="M40 35C37.239 35 35 37.239 35 40C35 42.761 37.239 45 40 45C42.761 45 45 42.761 45 40C45 37.239 42.761 35 40 35Z" fill="#3498db"/>
</svg> 