<svg width="32" height="32" viewBox="0 0 32 32" fill="none" xmlns="http://www.w3.org/2000/svg">
  <path d="M16 2C8.268 2 2 8.268 2 16C2 23.732 8.268 30 16 30C23.732 30 30 23.732 30 16C30 8.268 23.732 2 16 2Z" fill="#3498db"/>
  <path d="M16 7C11.038 7 7 11.038 7 16C7 20.962 11.038 25 16 25C20.962 25 25 20.962 25 16C25 11.038 20.962 7 16 7Z" fill="white"/>
  <path d="M16 12C13.791 12 12 13.791 12 16C12 18.209 13.791 20 16 20C18.209 20 20 18.209 20 16C20 13.791 18.209 12 16 12Z" fill="#3498db"/>
</svg> 